<?xml version="1.0" standalone="no"?>
<!DOCTYPE svg PUBLIC "-//W3C//DTD SVG 20010904//EN"
 "http://www.w3.org/TR/2001/REC-SVG-20010904/DTD/svg10.dtd">
<svg version="1.0" xmlns="http://www.w3.org/2000/svg"
 width="100.000000pt" height="100.000000pt" viewBox="0 0 100.000000 100.000000"
 preserveAspectRatio="xMidYMid meet">
<metadata>
Created by potrace 1.10, written by Peter Selinger 2001-2011
</metadata>
<g transform="translate(0.000000,100.000000) scale(0.100000,-0.100000)"
fill="#f7f7f7" stroke="none">
<path d="M423 929 c-94 -27 -142 -139 -114 -262 5 -21 5 -39 0 -43 -16 -9 -10
-60 10 -85 10 -13 22 -35 26 -49 4 -14 14 -34 21 -45 16 -22 19 -96 4 -111 -9
-9 33 -74 49 -74 4 0 22 18 39 39 l32 40 -35 21 c-27 17 -35 28 -35 52 0 16
-9 41 -20 55 -11 14 -20 33 -20 43 0 9 -9 27 -20 40 -21 25 -26 50 -11 65 5 6
4 36 -2 70 -12 72 -4 123 25 160 43 55 143 73 191 35 14 -11 32 -20 40 -20 33
0 57 -49 57 -116 0 -34 -5 -75 -10 -90 -8 -19 -8 -30 0 -38 15 -15 12 -56 -5
-62 -8 -3 -19 -23 -25 -44 -6 -21 -17 -43 -25 -50 -8 -7 -15 -29 -15 -49 0
-33 -4 -39 -35 -54 l-36 -17 32 -40 c18 -22 36 -40 40 -40 16 0 58 65 49 74
-17 17 -11 84 10 123 11 21 20 43 20 50 0 7 8 16 17 21 14 8 17 31 20 143 4
168 -4 187 -96 235 -67 35 -114 41 -178 23z"/>
<path d="M248 276 c-103 -49 -148 -102 -148 -171 l0 -25 169 0 169 0 7 38 c3
20 15 57 26 81 25 56 14 71 -21 29 l-28 -33 -26 24 c-14 13 -36 39 -48 57 -13
19 -25 34 -28 33 -3 0 -35 -15 -72 -33z m120 -76 c65 -73 56 -80 -94 -80 -72
0 -124 4 -124 10 0 29 30 65 75 91 69 40 91 37 143 -21z"/>
<path d="M652 276 c-12 -18 -34 -44 -48 -57 l-26 -24 -28 33 c-35 42 -46 27
-21 -29 11 -24 23 -61 26 -82 l7 -37 169 0 c188 0 180 -4 159 70 -13 49 -62
93 -142 130 -37 16 -69 30 -70 30 -2 0 -13 -15 -26 -34z m127 -56 c37 -18 71
-62 71 -90 0 -6 -44 -10 -124 -10 -151 0 -161 8 -94 79 65 68 57 67 147 21z"/>
</g>
</svg>
